<svg width="46" height="26" viewBox="0 0 46 26" fill="none" xmlns="http://www.w3.org/2000/svg">
<path d="M19.6593 14.23C19.6593 14.334 19.6533 14.444 19.6413 14.56H17.0133C17.0333 14.884 17.1433 15.138 17.3433 15.322C17.5473 15.502 17.7933 15.592 18.0813 15.592C18.3173 15.592 18.5133 15.538 18.6693 15.43C18.8293 15.318 18.9413 15.17 19.0053 14.986H19.5933C19.5053 15.302 19.3293 15.56 19.0653 15.76C18.8013 15.956 18.4733 16.054 18.0813 16.054C17.7693 16.054 17.4893 15.984 17.2413 15.844C16.9973 15.704 16.8053 15.506 16.6653 15.25C16.5253 14.99 16.4553 14.69 16.4553 14.35C16.4553 14.01 16.5233 13.712 16.6593 13.456C16.7953 13.2 16.9853 13.004 17.2293 12.868C17.4773 12.728 17.7613 12.658 18.0813 12.658C18.3933 12.658 18.6693 12.726 18.9093 12.862C19.1493 12.998 19.3333 13.186 19.4613 13.426C19.5933 13.662 19.6593 13.93 19.6593 14.23ZM19.0953 14.116C19.0953 13.908 19.0493 13.73 18.9573 13.582C18.8653 13.43 18.7393 13.316 18.5793 13.24C18.4233 13.16 18.2493 13.12 18.0573 13.12C17.7813 13.12 17.5453 13.208 17.3493 13.384C17.1573 13.56 17.0473 13.804 17.0193 14.116H19.0953ZM20.926 13.246C21.022 13.058 21.158 12.912 21.334 12.808C21.514 12.704 21.732 12.652 21.988 12.652V13.216H21.844C21.232 13.216 20.926 13.548 20.926 14.212V16H20.38V12.712H20.926V13.246ZM23.7823 16.054C23.5303 16.054 23.3043 16.012 23.1043 15.928C22.9043 15.84 22.7463 15.72 22.6303 15.568C22.5143 15.412 22.4503 15.234 22.4383 15.034H23.0023C23.0183 15.198 23.0943 15.332 23.2303 15.436C23.3703 15.54 23.5523 15.592 23.7763 15.592C23.9843 15.592 24.1483 15.546 24.2683 15.454C24.3883 15.362 24.4483 15.246 24.4483 15.106C24.4483 14.962 24.3843 14.856 24.2563 14.788C24.1283 14.716 23.9303 14.646 23.6623 14.578C23.4183 14.514 23.2183 14.45 23.0623 14.386C22.9103 14.318 22.7783 14.22 22.6663 14.092C22.5583 13.96 22.5043 13.788 22.5043 13.576C22.5043 13.408 22.5543 13.254 22.6543 13.114C22.7543 12.974 22.8963 12.864 23.0803 12.784C23.2643 12.7 23.4743 12.658 23.7103 12.658C24.0743 12.658 24.3683 12.75 24.5923 12.934C24.8163 13.118 24.9363 13.37 24.9523 13.69H24.4063C24.3943 13.518 24.3243 13.38 24.1963 13.276C24.0723 13.172 23.9043 13.12 23.6923 13.12C23.4963 13.12 23.3403 13.162 23.2243 13.246C23.1083 13.33 23.0503 13.44 23.0503 13.576C23.0503 13.684 23.0843 13.774 23.1523 13.846C23.2243 13.914 23.3123 13.97 23.4163 14.014C23.5243 14.054 23.6723 14.1 23.8603 14.152C24.0963 14.216 24.2883 14.28 24.4363 14.344C24.5843 14.404 24.7103 14.496 24.8143 14.62C24.9223 14.744 24.9783 14.906 24.9823 15.106C24.9823 15.286 24.9323 15.448 24.8323 15.592C24.7323 15.736 24.5903 15.85 24.4063 15.934C24.2263 16.014 24.0183 16.054 23.7823 16.054ZM27.187 16.054C26.879 16.054 26.599 15.984 26.347 15.844C26.099 15.704 25.903 15.506 25.759 15.25C25.619 14.99 25.549 14.69 25.549 14.35C25.549 14.014 25.621 13.718 25.765 13.462C25.913 13.202 26.113 13.004 26.365 12.868C26.617 12.728 26.899 12.658 27.211 12.658C27.523 12.658 27.805 12.728 28.057 12.868C28.309 13.004 28.507 13.2 28.651 13.456C28.799 13.712 28.873 14.01 28.873 14.35C28.873 14.69 28.797 14.99 28.645 15.25C28.497 15.506 28.295 15.704 28.039 15.844C27.783 15.984 27.499 16.054 27.187 16.054ZM27.187 15.574C27.383 15.574 27.567 15.528 27.739 15.436C27.911 15.344 28.049 15.206 28.153 15.022C28.261 14.838 28.315 14.614 28.315 14.35C28.315 14.086 28.263 13.862 28.159 13.678C28.055 13.494 27.919 13.358 27.751 13.27C27.583 13.178 27.401 13.132 27.205 13.132C27.005 13.132 26.821 13.178 26.653 13.27C26.489 13.358 26.357 13.494 26.257 13.678C26.157 13.862 26.107 14.086 26.107 14.35C26.107 14.618 26.155 14.844 26.251 15.028C26.351 15.212 26.483 15.35 26.647 15.442C26.811 15.53 26.991 15.574 27.187 15.574ZM31.1929 12.652C31.5929 12.652 31.9169 12.774 32.1649 13.018C32.4129 13.258 32.5369 13.606 32.5369 14.062V16H31.9969V14.14C31.9969 13.812 31.9149 13.562 31.7509 13.39C31.5869 13.214 31.3629 13.126 31.0789 13.126C30.7909 13.126 30.5609 13.216 30.3889 13.396C30.2209 13.576 30.1369 13.838 30.1369 14.182V16H29.5909V12.712H30.1369V13.18C30.2449 13.012 30.3909 12.882 30.5749 12.79C30.7629 12.698 30.9689 12.652 31.1929 12.652ZM33.2248 14.344C33.2248 14.008 33.2928 13.714 33.4288 13.462C33.5648 13.206 33.7508 13.008 33.9868 12.868C34.2268 12.728 34.4928 12.658 34.7848 12.658C35.0728 12.658 35.3228 12.72 35.5348 12.844C35.7468 12.968 35.9048 13.124 36.0088 13.312V12.712H36.5608V16H36.0088V15.388C35.9008 15.58 35.7388 15.74 35.5228 15.868C35.3108 15.992 35.0628 16.054 34.7788 16.054C34.4868 16.054 34.2228 15.982 33.9868 15.838C33.7508 15.694 33.5648 15.492 33.4288 15.232C33.2928 14.972 33.2248 14.676 33.2248 14.344ZM36.0088 14.35C36.0088 14.102 35.9588 13.886 35.8588 13.702C35.7588 13.518 35.6228 13.378 35.4508 13.282C35.2828 13.182 35.0968 13.132 34.8928 13.132C34.6888 13.132 34.5028 13.18 34.3348 13.276C34.1668 13.372 34.0328 13.512 33.9328 13.696C33.8328 13.88 33.7828 14.096 33.7828 14.344C33.7828 14.596 33.8328 14.816 33.9328 15.004C34.0328 15.188 34.1668 15.33 34.3348 15.43C34.5028 15.526 34.6888 15.574 34.8928 15.574C35.0968 15.574 35.2828 15.526 35.4508 15.43C35.6228 15.33 35.7588 15.188 35.8588 15.004C35.9588 14.816 36.0088 14.598 36.0088 14.35ZM38.0295 11.56V16H37.4835V11.56H38.0295ZM39.242 12.178C39.138 12.178 39.05 12.142 38.978 12.07C38.906 11.998 38.87 11.91 38.87 11.806C38.87 11.702 38.906 11.614 38.978 11.542C39.05 11.47 39.138 11.434 39.242 11.434C39.342 11.434 39.426 11.47 39.494 11.542C39.566 11.614 39.602 11.702 39.602 11.806C39.602 11.91 39.566 11.998 39.494 12.07C39.426 12.142 39.342 12.178 39.242 12.178ZM39.506 12.712V16H38.96V12.712H39.506ZM41.1026 13.162V15.1C41.1026 15.26 41.1366 15.374 41.2046 15.442C41.2726 15.506 41.3906 15.538 41.5586 15.538H41.9606V16H41.4686C41.1646 16 40.9366 15.93 40.7846 15.79C40.6326 15.65 40.5566 15.42 40.5566 15.1V13.162H40.1306V12.712H40.5566V11.884H41.1026V12.712H41.9606V13.162H41.1026ZM45.4542 12.712L43.4742 17.548H42.9102L43.5582 15.964L42.2322 12.712H42.8382L43.8702 15.376L44.8902 12.712H45.4542ZM6.008 22.246C6.104 22.058 6.24 21.912 6.416 21.808C6.596 21.704 6.814 21.652 7.07 21.652V22.216H6.926C6.314 22.216 6.008 22.548 6.008 23.212V25H5.462V21.712H6.008V22.246ZM9.13428 25.054C8.82628 25.054 8.54628 24.984 8.29428 24.844C8.04628 24.704 7.85028 24.506 7.70628 24.25C7.56628 23.99 7.49628 23.69 7.49628 23.35C7.49628 23.014 7.56828 22.718 7.71228 22.462C7.86028 22.202 8.06028 22.004 8.31228 21.868C8.56428 21.728 8.84628 21.658 9.15828 21.658C9.47028 21.658 9.75228 21.728 10.0043 21.868C10.2563 22.004 10.4543 22.2 10.5983 22.456C10.7463 22.712 10.8203 23.01 10.8203 23.35C10.8203 23.69 10.7443 23.99 10.5923 24.25C10.4443 24.506 10.2423 24.704 9.98628 24.844C9.73028 24.984 9.44628 25.054 9.13428 25.054ZM9.13428 24.574C9.33028 24.574 9.51428 24.528 9.68628 24.436C9.85828 24.344 9.99628 24.206 10.1003 24.022C10.2083 23.838 10.2623 23.614 10.2623 23.35C10.2623 23.086 10.2103 22.862 10.1063 22.678C10.0023 22.494 9.86628 22.358 9.69828 22.27C9.53028 22.178 9.34828 22.132 9.15228 22.132C8.95228 22.132 8.76828 22.178 8.60028 22.27C8.43628 22.358 8.30428 22.494 8.20428 22.678C8.10428 22.862 8.05428 23.086 8.05428 23.35C8.05428 23.618 8.10228 23.844 8.19828 24.028C8.29828 24.212 8.43028 24.35 8.59428 24.442C8.75828 24.53 8.93828 24.574 9.13428 24.574ZM12.8762 22.162H12.1862V25H11.6402V22.162H11.2142V21.712H11.6402V21.478C11.6402 21.11 11.7342 20.842 11.9222 20.674C12.1142 20.502 12.4202 20.416 12.8402 20.416V20.872C12.6002 20.872 12.4302 20.92 12.3302 21.016C12.2342 21.108 12.1862 21.262 12.1862 21.478V21.712H12.8762V22.162ZM13.7948 21.178C13.6908 21.178 13.6028 21.142 13.5308 21.07C13.4588 20.998 13.4228 20.91 13.4228 20.806C13.4228 20.702 13.4588 20.614 13.5308 20.542C13.6028 20.47 13.6908 20.434 13.7948 20.434C13.8948 20.434 13.9788 20.47 14.0468 20.542C14.1188 20.614 14.1548 20.702 14.1548 20.806C14.1548 20.91 14.1188 20.998 14.0468 21.07C13.9788 21.142 13.8948 21.178 13.7948 21.178ZM14.0588 21.712V25H13.5128V21.712H14.0588ZM15.5353 20.56V25H14.9893V20.56H15.5353ZM19.4659 23.23C19.4659 23.334 19.4599 23.444 19.4479 23.56H16.8199C16.8399 23.884 16.9499 24.138 17.1499 24.322C17.3539 24.502 17.5999 24.592 17.8879 24.592C18.1239 24.592 18.3199 24.538 18.4759 24.43C18.6359 24.318 18.7479 24.17 18.8119 23.986H19.3999C19.3119 24.302 19.1359 24.56 18.8719 24.76C18.6079 24.956 18.2799 25.054 17.8879 25.054C17.5759 25.054 17.2959 24.984 17.0479 24.844C16.8039 24.704 16.6119 24.506 16.4719 24.25C16.3319 23.99 16.2619 23.69 16.2619 23.35C16.2619 23.01 16.3299 22.712 16.4659 22.456C16.6019 22.2 16.7919 22.004 17.0359 21.868C17.2839 21.728 17.5679 21.658 17.8879 21.658C18.1999 21.658 18.4759 21.726 18.7159 21.862C18.9559 21.998 19.1399 22.186 19.2679 22.426C19.3999 22.662 19.4659 22.93 19.4659 23.23ZM18.9019 23.116C18.9019 22.908 18.8559 22.73 18.7639 22.582C18.6719 22.43 18.5459 22.316 18.3859 22.24C18.2299 22.16 18.0559 22.12 17.8639 22.12C17.5879 22.12 17.3519 22.208 17.1559 22.384C16.9639 22.56 16.8539 22.804 16.8259 23.116H18.9019Z" fill="black"/>
<path d="M16.776 7.344C16.776 9.432 16.056 11.172 14.616 12.564C13.2 13.932 11.028 14.616 8.1 14.616H3.276V25.092H0V0H8.1C10.932 0 13.08 0.684 14.544 2.052C16.032 3.42 16.776 5.184 16.776 7.344ZM8.1 11.916C9.924 11.916 11.268 11.52 12.132 10.728C12.996 9.936 13.428 8.808 13.428 7.344C13.428 4.248 11.652 2.7 8.1 2.7H3.276V11.916H8.1Z" fill="black"/>
</svg>
