<svg width="54" height="34" viewBox="0 0 54 34" fill="none" xmlns="http://www.w3.org/2000/svg">
<g filter="url(#filter0_d_352_2274)">
<path d="M23.6593 14.23C23.6593 14.334 23.6533 14.444 23.6413 14.56H21.0133C21.0333 14.884 21.1433 15.138 21.3433 15.322C21.5473 15.502 21.7933 15.592 22.0813 15.592C22.3173 15.592 22.5133 15.538 22.6693 15.43C22.8293 15.318 22.9413 15.17 23.0053 14.986H23.5933C23.5053 15.302 23.3293 15.56 23.0653 15.76C22.8013 15.956 22.4733 16.054 22.0813 16.054C21.7693 16.054 21.4893 15.984 21.2413 15.844C20.9973 15.704 20.8053 15.506 20.6653 15.25C20.5253 14.99 20.4553 14.69 20.4553 14.35C20.4553 14.01 20.5233 13.712 20.6593 13.456C20.7953 13.2 20.9853 13.004 21.2293 12.868C21.4773 12.728 21.7613 12.658 22.0813 12.658C22.3933 12.658 22.6693 12.726 22.9093 12.862C23.1493 12.998 23.3333 13.186 23.4613 13.426C23.5933 13.662 23.6593 13.93 23.6593 14.23ZM23.0953 14.116C23.0953 13.908 23.0493 13.73 22.9573 13.582C22.8653 13.43 22.7393 13.316 22.5793 13.24C22.4233 13.16 22.2493 13.12 22.0573 13.12C21.7813 13.12 21.5453 13.208 21.3493 13.384C21.1573 13.56 21.0473 13.804 21.0193 14.116H23.0953ZM24.926 13.246C25.022 13.058 25.158 12.912 25.334 12.808C25.514 12.704 25.732 12.652 25.988 12.652V13.216H25.844C25.232 13.216 24.926 13.548 24.926 14.212V16H24.38V12.712H24.926V13.246ZM27.7823 16.054C27.5303 16.054 27.3043 16.012 27.1043 15.928C26.9043 15.84 26.7463 15.72 26.6303 15.568C26.5143 15.412 26.4503 15.234 26.4383 15.034H27.0023C27.0183 15.198 27.0943 15.332 27.2303 15.436C27.3703 15.54 27.5523 15.592 27.7763 15.592C27.9843 15.592 28.1483 15.546 28.2683 15.454C28.3883 15.362 28.4483 15.246 28.4483 15.106C28.4483 14.962 28.3843 14.856 28.2563 14.788C28.1283 14.716 27.9303 14.646 27.6623 14.578C27.4183 14.514 27.2183 14.45 27.0623 14.386C26.9103 14.318 26.7783 14.22 26.6663 14.092C26.5583 13.96 26.5043 13.788 26.5043 13.576C26.5043 13.408 26.5543 13.254 26.6543 13.114C26.7543 12.974 26.8963 12.864 27.0803 12.784C27.2643 12.7 27.4743 12.658 27.7103 12.658C28.0743 12.658 28.3683 12.75 28.5923 12.934C28.8163 13.118 28.9363 13.37 28.9523 13.69H28.4063C28.3943 13.518 28.3243 13.38 28.1963 13.276C28.0723 13.172 27.9043 13.12 27.6923 13.12C27.4963 13.12 27.3403 13.162 27.2243 13.246C27.1083 13.33 27.0503 13.44 27.0503 13.576C27.0503 13.684 27.0843 13.774 27.1523 13.846C27.2243 13.914 27.3123 13.97 27.4163 14.014C27.5243 14.054 27.6723 14.1 27.8603 14.152C28.0963 14.216 28.2883 14.28 28.4363 14.344C28.5843 14.404 28.7103 14.496 28.8143 14.62C28.9223 14.744 28.9783 14.906 28.9823 15.106C28.9823 15.286 28.9323 15.448 28.8323 15.592C28.7323 15.736 28.5903 15.85 28.4063 15.934C28.2263 16.014 28.0183 16.054 27.7823 16.054ZM31.187 16.054C30.879 16.054 30.599 15.984 30.347 15.844C30.099 15.704 29.903 15.506 29.759 15.25C29.619 14.99 29.549 14.69 29.549 14.35C29.549 14.014 29.621 13.718 29.765 13.462C29.913 13.202 30.113 13.004 30.365 12.868C30.617 12.728 30.899 12.658 31.211 12.658C31.523 12.658 31.805 12.728 32.057 12.868C32.309 13.004 32.507 13.2 32.651 13.456C32.799 13.712 32.873 14.01 32.873 14.35C32.873 14.69 32.797 14.99 32.645 15.25C32.497 15.506 32.295 15.704 32.039 15.844C31.783 15.984 31.499 16.054 31.187 16.054ZM31.187 15.574C31.383 15.574 31.567 15.528 31.739 15.436C31.911 15.344 32.049 15.206 32.153 15.022C32.261 14.838 32.315 14.614 32.315 14.35C32.315 14.086 32.263 13.862 32.159 13.678C32.055 13.494 31.919 13.358 31.751 13.27C31.583 13.178 31.401 13.132 31.205 13.132C31.005 13.132 30.821 13.178 30.653 13.27C30.489 13.358 30.357 13.494 30.257 13.678C30.157 13.862 30.107 14.086 30.107 14.35C30.107 14.618 30.155 14.844 30.251 15.028C30.351 15.212 30.483 15.35 30.647 15.442C30.811 15.53 30.991 15.574 31.187 15.574ZM35.1929 12.652C35.5929 12.652 35.9169 12.774 36.1649 13.018C36.4129 13.258 36.5369 13.606 36.5369 14.062V16H35.9969V14.14C35.9969 13.812 35.9149 13.562 35.7509 13.39C35.5869 13.214 35.3629 13.126 35.0789 13.126C34.7909 13.126 34.5609 13.216 34.3889 13.396C34.2209 13.576 34.1369 13.838 34.1369 14.182V16H33.5909V12.712H34.1369V13.18C34.2449 13.012 34.3909 12.882 34.5749 12.79C34.7629 12.698 34.9689 12.652 35.1929 12.652ZM37.2248 14.344C37.2248 14.008 37.2928 13.714 37.4288 13.462C37.5648 13.206 37.7508 13.008 37.9868 12.868C38.2268 12.728 38.4928 12.658 38.7848 12.658C39.0728 12.658 39.3228 12.72 39.5348 12.844C39.7468 12.968 39.9048 13.124 40.0088 13.312V12.712H40.5608V16H40.0088V15.388C39.9008 15.58 39.7388 15.74 39.5228 15.868C39.3108 15.992 39.0628 16.054 38.7788 16.054C38.4868 16.054 38.2228 15.982 37.9868 15.838C37.7508 15.694 37.5648 15.492 37.4288 15.232C37.2928 14.972 37.2248 14.676 37.2248 14.344ZM40.0088 14.35C40.0088 14.102 39.9588 13.886 39.8588 13.702C39.7588 13.518 39.6228 13.378 39.4508 13.282C39.2828 13.182 39.0968 13.132 38.8928 13.132C38.6888 13.132 38.5028 13.18 38.3348 13.276C38.1668 13.372 38.0328 13.512 37.9328 13.696C37.8328 13.88 37.7828 14.096 37.7828 14.344C37.7828 14.596 37.8328 14.816 37.9328 15.004C38.0328 15.188 38.1668 15.33 38.3348 15.43C38.5028 15.526 38.6888 15.574 38.8928 15.574C39.0968 15.574 39.2828 15.526 39.4508 15.43C39.6228 15.33 39.7588 15.188 39.8588 15.004C39.9588 14.816 40.0088 14.598 40.0088 14.35ZM42.0295 11.56V16H41.4835V11.56H42.0295ZM43.242 12.178C43.138 12.178 43.05 12.142 42.978 12.07C42.906 11.998 42.87 11.91 42.87 11.806C42.87 11.702 42.906 11.614 42.978 11.542C43.05 11.47 43.138 11.434 43.242 11.434C43.342 11.434 43.426 11.47 43.494 11.542C43.566 11.614 43.602 11.702 43.602 11.806C43.602 11.91 43.566 11.998 43.494 12.07C43.426 12.142 43.342 12.178 43.242 12.178ZM43.506 12.712V16H42.96V12.712H43.506ZM45.1026 13.162V15.1C45.1026 15.26 45.1366 15.374 45.2046 15.442C45.2726 15.506 45.3906 15.538 45.5586 15.538H45.9606V16H45.4686C45.1646 16 44.9366 15.93 44.7846 15.79C44.6326 15.65 44.5566 15.42 44.5566 15.1V13.162H44.1306V12.712H44.5566V11.884H45.1026V12.712H45.9606V13.162H45.1026ZM49.4542 12.712L47.4742 17.548H46.9102L47.5582 15.964L46.2322 12.712H46.8382L47.8702 15.376L48.8902 12.712H49.4542ZM10.008 22.246C10.104 22.058 10.24 21.912 10.416 21.808C10.596 21.704 10.814 21.652 11.07 21.652V22.216H10.926C10.314 22.216 10.008 22.548 10.008 23.212V25H9.462V21.712H10.008V22.246ZM13.1343 25.054C12.8263 25.054 12.5463 24.984 12.2943 24.844C12.0463 24.704 11.8503 24.506 11.7063 24.25C11.5663 23.99 11.4963 23.69 11.4963 23.35C11.4963 23.014 11.5683 22.718 11.7123 22.462C11.8603 22.202 12.0603 22.004 12.3123 21.868C12.5643 21.728 12.8463 21.658 13.1583 21.658C13.4703 21.658 13.7523 21.728 14.0043 21.868C14.2563 22.004 14.4543 22.2 14.5983 22.456C14.7463 22.712 14.8203 23.01 14.8203 23.35C14.8203 23.69 14.7443 23.99 14.5923 24.25C14.4443 24.506 14.2423 24.704 13.9863 24.844C13.7303 24.984 13.4463 25.054 13.1343 25.054ZM13.1343 24.574C13.3303 24.574 13.5143 24.528 13.6863 24.436C13.8583 24.344 13.9963 24.206 14.1003 24.022C14.2083 23.838 14.2623 23.614 14.2623 23.35C14.2623 23.086 14.2103 22.862 14.1063 22.678C14.0023 22.494 13.8663 22.358 13.6983 22.27C13.5303 22.178 13.3483 22.132 13.1523 22.132C12.9523 22.132 12.7683 22.178 12.6003 22.27C12.4363 22.358 12.3043 22.494 12.2043 22.678C12.1043 22.862 12.0543 23.086 12.0543 23.35C12.0543 23.618 12.1023 23.844 12.1983 24.028C12.2983 24.212 12.4303 24.35 12.5943 24.442C12.7583 24.53 12.9383 24.574 13.1343 24.574ZM16.8762 22.162H16.1862V25H15.6402V22.162H15.2142V21.712H15.6402V21.478C15.6402 21.11 15.7342 20.842 15.9222 20.674C16.1142 20.502 16.4202 20.416 16.8402 20.416V20.872C16.6002 20.872 16.4302 20.92 16.3302 21.016C16.2342 21.108 16.1862 21.262 16.1862 21.478V21.712H16.8762V22.162ZM17.7948 21.178C17.6908 21.178 17.6028 21.142 17.5308 21.07C17.4588 20.998 17.4228 20.91 17.4228 20.806C17.4228 20.702 17.4588 20.614 17.5308 20.542C17.6028 20.47 17.6908 20.434 17.7948 20.434C17.8948 20.434 17.9788 20.47 18.0468 20.542C18.1188 20.614 18.1548 20.702 18.1548 20.806C18.1548 20.91 18.1188 20.998 18.0468 21.07C17.9788 21.142 17.8948 21.178 17.7948 21.178ZM18.0588 21.712V25H17.5128V21.712H18.0588ZM19.5353 20.56V25H18.9893V20.56H19.5353ZM23.4659 23.23C23.4659 23.334 23.4599 23.444 23.4479 23.56H20.8199C20.8399 23.884 20.9499 24.138 21.1499 24.322C21.3539 24.502 21.5999 24.592 21.8879 24.592C22.1239 24.592 22.3199 24.538 22.4759 24.43C22.6359 24.318 22.7479 24.17 22.8119 23.986H23.3999C23.3119 24.302 23.1359 24.56 22.8719 24.76C22.6079 24.956 22.2799 25.054 21.8879 25.054C21.5759 25.054 21.2959 24.984 21.0479 24.844C20.8039 24.704 20.6119 24.506 20.4719 24.25C20.3319 23.99 20.2619 23.69 20.2619 23.35C20.2619 23.01 20.3299 22.712 20.4659 22.456C20.6019 22.2 20.7919 22.004 21.0359 21.868C21.2839 21.728 21.5679 21.658 21.8879 21.658C22.1999 21.658 22.4759 21.726 22.7159 21.862C22.9559 21.998 23.1399 22.186 23.2679 22.426C23.3999 22.662 23.4659 22.93 23.4659 23.23ZM22.9019 23.116C22.9019 22.908 22.8559 22.73 22.7639 22.582C22.6719 22.43 22.5459 22.316 22.3859 22.24C22.2299 22.16 22.0559 22.12 21.8639 22.12C21.5879 22.12 21.3519 22.208 21.1559 22.384C20.9639 22.56 20.8539 22.804 20.8259 23.116H22.9019Z" fill="white"/>
<path d="M20.776 7.344C20.776 9.432 20.056 11.172 18.616 12.564C17.2 13.932 15.028 14.616 12.1 14.616H7.276V25.092H4V0H12.1C14.932 0 17.08 0.684 18.544 2.052C20.032 3.42 20.776 5.184 20.776 7.344ZM12.1 11.916C13.924 11.916 15.268 11.52 16.132 10.728C16.996 9.936 17.428 8.808 17.428 7.344C17.428 4.248 15.652 2.7 12.1 2.7H7.276V11.916H12.1Z" fill="white"/>
</g>
<defs>
<filter id="filter0_d_352_2274" x="0" y="0" width="53.4551" height="33.092" filterUnits="userSpaceOnUse" color-interpolation-filters="sRGB">
<feFlood flood-opacity="0" result="BackgroundImageFix"/>
<feColorMatrix in="SourceAlpha" type="matrix" values="0 0 0 0 0 0 0 0 0 0 0 0 0 0 0 0 0 0 127 0" result="hardAlpha"/>
<feOffset dy="4"/>
<feGaussianBlur stdDeviation="2"/>
<feComposite in2="hardAlpha" operator="out"/>
<feColorMatrix type="matrix" values="0 0 0 0 0 0 0 0 0 0 0 0 0 0 0 0 0 0 0.25 0"/>
<feBlend mode="normal" in2="BackgroundImageFix" result="effect1_dropShadow_352_2274"/>
<feBlend mode="normal" in="SourceGraphic" in2="effect1_dropShadow_352_2274" result="shape"/>
</filter>
</defs>
</svg>
